<svg width="15" height="11" viewBox="0 0 15 11" fill="none" xmlns="http://www.w3.org/2000/svg">
<path d="M14.3269 3.79334L13.6602 3.42668L7.66024 0.0933447H7.58691C7.54604 0.0760639 7.50363 0.0626714 7.46024 0.0533447H7.33358H7.21358C7.16803 0.0626776 7.12341 0.0760641 7.08024 0.0933447H7.00691L1.00691 3.42668C0.904312 3.48482 0.818973 3.56914 0.7596 3.67104C0.700227 3.77293 0.668945 3.88875 0.668945 4.00668C0.668945 4.12461 0.700227 4.24043 0.7596 4.34232C0.818973 4.44421 0.904312 4.52853 1.00691 4.58668L2.66691 5.50668V8.66668C2.66691 9.19711 2.87762 9.70582 3.2527 10.0809C3.62777 10.456 4.13648 10.6667 4.66691 10.6667H10.0002C10.5307 10.6667 11.0394 10.456 11.4145 10.0809C11.7895 9.70582 12.0002 9.19711 12.0002 8.66668V5.50668L13.3336 4.76001V6.66668C13.3336 6.84349 13.4038 7.01306 13.5288 7.13808C13.6539 7.26311 13.8234 7.33334 14.0002 7.33334C14.1771 7.33334 14.3466 7.26311 14.4716 7.13808C14.5967 7.01306 14.6669 6.84349 14.6669 6.66668V4.37335C14.6667 4.25521 14.6351 4.13926 14.5754 4.03735C14.5156 3.93544 14.4299 3.85123 14.3269 3.79334V3.79334ZM10.6669 8.66668C10.6669 8.84349 10.5967 9.01306 10.4716 9.13808C10.3466 9.26311 10.1771 9.33335 10.0002 9.33335H4.66691C4.4901 9.33335 4.32053 9.26311 4.19551 9.13808C4.07048 9.01306 4.00024 8.84349 4.00024 8.66668V6.24668L7.00691 7.91335L7.10691 7.95335H7.16691C7.22225 7.96032 7.27824 7.96032 7.33358 7.95335C7.38891 7.96032 7.44491 7.96032 7.50024 7.95335H7.56024C7.59564 7.94588 7.62947 7.93235 7.66024 7.91335L10.6669 6.24668V8.66668ZM7.33358 6.57334L2.70691 4.00001L7.33358 1.42668L11.9602 4.00001L7.33358 6.57334Z" fill="white"/>
</svg>
