<svg width="24" height="24" viewBox="0 0 24 24" fill="none" xmlns="http://www.w3.org/2000/svg">
<path fill-rule="evenodd" clip-rule="evenodd" d="M18.4831 19.79L18.4838 19.7883L18.5012 19.7448L21.5 4.62568V4.57657C21.5 4.19987 21.3608 3.87101 21.0579 3.67375C20.7928 3.50109 20.4881 3.48879 20.2744 3.50501C20.0483 3.52217 19.8352 3.57858 19.6877 3.62554C19.6118 3.6497 19.5483 3.67298 19.5028 3.69059C19.48 3.69943 19.4615 3.70692 19.4481 3.71251L19.4349 3.71807L2.71508 10.277L2.71048 10.2787C2.70145 10.2819 2.68951 10.2864 2.67508 10.292C2.64633 10.3032 2.60719 10.3192 2.56121 10.3401C2.47093 10.381 2.34619 10.4441 2.21969 10.5307C2.00484 10.6779 1.59572 11.0262 1.6648 11.5784C1.72202 12.0358 2.03733 12.3263 2.2499 12.4767C2.36384 12.5574 2.47286 12.6155 2.55269 12.6535C2.59313 12.6728 2.62749 12.6875 2.65308 12.6979C2.66591 12.7032 2.67663 12.7073 2.68493 12.7105L2.69556 12.7144L2.70235 12.717L5.62759 13.7018C5.61772 13.8853 5.63592 14.0724 5.68459 14.2571L7.14988 19.8155C7.32361 20.4745 7.91984 20.9336 8.60141 20.9331C9.21234 20.9327 9.75417 20.5631 9.98435 20.0117L12.272 17.5656L16.201 20.5778L16.2569 20.6022C16.6138 20.758 16.9474 20.8073 17.2523 20.7657C17.5568 20.7241 17.7987 20.5964 17.9805 20.451C18.1594 20.3079 18.2819 20.1464 18.359 20.0248C18.3982 19.963 18.4274 19.9087 18.4476 19.8679C18.4578 19.8473 18.4658 19.83 18.4718 19.8164L18.4794 19.799L18.4821 19.7926L18.4831 19.79ZM7.13499 13.8747C7.10169 13.7484 7.15397 13.615 7.26426 13.545L17.1863 7.24407C17.1863 7.24407 17.7699 6.88978 17.749 7.24407C17.749 7.24407 17.8532 7.30664 17.5404 7.59837C17.2438 7.87544 10.4688 14.4165 9.78322 15.0784C9.74365 15.1166 9.72003 15.1604 9.70608 15.2136L8.60028 19.4331L7.13499 13.8747Z" fill="#22c55e"/>
</svg>
